inDegrees=yes
name=ik_appendData_table_yaw
DataType=double
version=3
OpenSimVersion=4.5
endheader
time	pelvis_tilt	pelvis_list	pelvis_rotation	pelvis_tx	pelvis_ty	pelvis_tz	hip_flexion_r	hip_adduction_r	hip_rotation_r	knee_angle_r	knee_angle_r_beta	ankle_angle_r	subtalar_angle_r	mtp_angle_r	hip_flexion_l	hip_adduction_l	hip_rotation_l	knee_angle_l	knee_angle_l_beta	ankle_angle_l	subtalar_angle_l	mtp_angle_l	lumbar_extension	lumbar_bending	lumbar_rotation	arm_flex_r	arm_add_r	arm_rot_r	elbow_flex_r	pro_sup_r	wrist_flex_r	wrist_dev_r	arm_flex_l	arm_add_l	arm_rot_l	elbow_flex_l	pro_sup_l	wrist_flex_l	wrist_dev_l
25	-1.906522004812996	89.69896561078097	-2.581403178014068	0	0.9399999999999999	0	44.58916520488851	-10.05398534380925	0	59.94588696882416	1.046253100634345	-5.007669908673764	0	0	44.58916520488851	-10.05398534380925	0	59.94588696882416	1.046253100634345	-5.007669908673764	0	0	-0.001759236149271943	0.2887729091344085	3.3448499923623	0	-12.34131730252757	0	76.17673829363392	44.92288449310072	0	0	1.38716068163548	2.042487044673763	42.32480818595144	0.03125015548435472	44.92288449310072	0	0
26	-2.045925286384843	89.69185172490238	-2.694543441854431	0	0.9399999999999999	0	44.59214131672738	-10.05302438195396	0	59.94627668384855	1.046259902444665	-5.007505042004812	0	0	44.59214131672738	-10.05302438195396	0	59.94627668384855	1.046259902444665	-5.007505042004812	0	0	-0.002351425603333957	0.2948629536041191	3.597479182407366	0	-12.35297820872969	0	76.16821438861734	44.92404677326162	0	0	1.017546623015553	3.717224496329999	37.37961844936294	0.0286537926149196	44.92404677326162	0	0
27	-1.90457112082274	89.68910783949369	-2.82812718504949	0	0.9399999999999999	0	44.60266505866125	-10.04900887130093	0	59.94745567957808	1.046280479802012	-5.006799627153474	0	0	44.60266505866125	-10.04900887130093	0	59.94745567957808	1.046280479802012	-5.006799627153474	0	0	-0.006683245175340921	0.2974338414578213	3.585366841616729	0	-12.39041229432696	0	76.13807156577938	44.92877954503462	0	0	1.703856142430435	4.349733787717469	31.92241077177978	0.02508429629489409	44.92877954503462	0	0
28	-2.111788332468852	89.69939535520548	-3.754473609385907	0	0.9399999999999999	0	44.61185721103846	-10.04581256498286	0	59.94848984629449	1.046298529416228	-5.006255535794859	0	0	44.61185721103846	-10.04581256498286	0	59.94848984629449	1.046298529416228	-5.006255535794859	0	0	-0.01211233725754014	0.2864673492196597	4.730712363716335	0	-12.42386441817645	0	76.11174336809327	44.93263817411743	0	0	2.042387578868682	3.642063264303508	27.31544186823407	0.02671053565457507	44.93263817411743	0	0
29	-2.115473016748667	89.7025020345213	-3.743825165002996	0	0.9399999999999999	0	44.61369001843159	-10.04528709779233	0	59.94873135621288	1.04630274455948	-5.006169308623258	0	0	44.61369001843159	-10.04528709779233	0	59.94873135621288	1.04630274455948	-5.006169308623258	0	0	-0.00524947808314919	0.2854150156427602	4.718700753242906	0	-12.43124208776111	0	76.1064941139505	44.93329462325857	0	0	1.608667412990284	3.433261543529361	23.4784348315696	0.03164043026404425	44.93329462325857	0	0
30	-2.124449737569458	89.70113252220729	-3.73505290741638	0	0.9399999999999999	0	44.61572790013722	-10.04471283291968	0	59.94900101505151	1.046307450994072	-5.006075590355517	0	0	44.61572790013722	-10.04471283291968	0	59.94900101505151	1.046307450994072	-5.006075590355517	0	0	-0.004779671224998996	0.2879248807504434	4.720739141954399	0	-12.43948861003846	0	76.10065753657554	44.93401506614003	0	0	1.193564306741212	3.245999895766805	19.13652652614382	0.0387195206509645	44.93401506614003	0	0
31	-2.14001387031822	89.69624844799425	-3.72489382771431	0	0.9399999999999999	0	44.61847520560718	-10.04393071006069	0	59.94936154103345	1.046313743359495	-5.00594770462336	0	0	44.61847520560718	-10.04393071006069	0	59.94936154103345	1.046313743359495	-5.00594770462336	0	0	-0.001465910332280551	0.2821020916388916	4.71782911765352	0	-12.45055605388339	0	76.09278911884925	44.93499440933063	0	0	0.8320391766287319	3.088970746135686	13.85390491303994	0.04971397571240067	44.93499440933063	0	0
32	-2.150641551793432	89.69603145092174	-3.717219652311146	0	0.9399999999999999	0	44.6206004577142	-10.04334129627448	0	59.94964256670762	1.046318648182792	-5.005852047598108	0	0	44.6206004577142	-10.04334129627448	0	59.94964256670762	1.046318648182792	-5.005852047598108	0	0	-0.008506029046281749	0.2856894966678564	4.727248749449047	0	-12.45919282145334	0	76.08670232553825	44.93573691069267	0	0	0.4117582469740945	3.544459821425427	9.141377006099782	0.06333205774545364	44.93573691069267	0	0
33	-2.144091778200677	89.70190686181581	-3.723377712909747	0	0.9399999999999999	0	44.62264950017813	-10.04277730767342	0	59.94991373135331	1.046323380898674	-5.005760730870813	0	0	44.62264950017813	-10.04277730767342	0	59.94991373135331	1.046323380898674	-5.005760730870813	0	0	1.159622237151695	0.3311010204386635	4.739611597503942	0	-12.46753996147281	0	76.0808338079205	44.93644867240354	0	0	-0.5690689236252825	4.041490345683687	4.577191564447967	0.06239787547529568	44.93644867240354	0	0
34	-2.705620363666299	89.71258375660086	-4.273122046350745	0	0.9399999999999999	0	44.62509517474084	-10.04211667618768	0	59.95023821575117	1.046329044219789	-5.005654465327471	0	0	44.62509517474084	-10.04211667618768	0	59.95023821575117	1.046329044219789	-5.005654465327471	0	0	1.129412442790042	0.3323807602242372	5.849393252125718	0	-12.47755312692457	0	76.07382934640673	44.93728646350208	0	0	-0.3430386723948738	3.341860344650119	-0.5995862027130361	0.07274778763156216	44.93728646350208	0	0
